<?xml version="1.0" encoding="UTF-8" standalone="no"?>
<!--
  Licensed to the Technische Universität Darmstadt under one
  or more contributor license agreements.  See the NOTICE file
  distributed with this work for additional information
  regarding copyright ownership.  The Technische Universität Darmstadt 
  licenses this file to you under the Apache License, Version 2.0 (the
  "License"); you may not use this file except in compliance
  with the License.
   
  http://www.apache.org/licenses/LICENSE-2.0
  
  Unless required by applicable law or agreed to in writing, software
  distributed under the License is distributed on an "AS IS" BASIS,
  WITHOUT WARRANTIES OR CONDITIONS OF ANY KIND, either express or implied.
  See the License for the specific language governing permissions and
  limitations under the License.
  
  - - - - - - - - - - - - - - - - - - - - - - - - - - - - - - - - - - - - -
  
  Derived from FontAwesome 6.7.2 robot classic solid
  
  Font Awesome Free 6.7.2 by @fontawesome
  https://fontawesome.com License
  https://fontawesome.com/license/free (Icons: CC BY 4.0, Fonts: SIL OFL 1.1, Code: MIT License)
  Copyright 2024 Fonticons, Inc.
-->

<!-- Created with Inkscape (http://www.inkscape.org/) -->

<svg
   width="250"
   height="250"
   viewBox="0 0 66.145834 66.145832"
   version="1.1"
   id="svg1"
   xml:space="preserve"
   xmlns="http://www.w3.org/2000/svg"
   xmlns:svg="http://www.w3.org/2000/svg"><defs
     id="defs1" /><g
     id="layer1"><path
       d="m 34.578973,0.22011961 c 1.529333,0 2.764895,1.19713569 2.764895,2.67890569 v 5.357812 h 10.368358 c 3.438841,0 6.221016,2.6956477 6.221016,6.0275377 v 22.770704 c 0,3.331889 -2.782175,6.027538 -6.221016,6.027538 H 21.445718 c -3.43884,0 -6.221015,-2.695649 -6.221015,-6.027538 V 14.284375 c 0,-3.33189 2.782175,-6.0275377 6.221015,-6.0275377 h 10.368359 v -5.357812 c 0,-1.48177 1.235563,-2.67890569 2.764896,-2.67890569 z M 29.740405,21.651367 c 0,-4.464842 -6.91224,-4.464842 -6.91224,0 0,4.464842 6.91224,4.464842 6.91224,0 z M 42.873661,25 c 4.610409,0.0022 4.610409,-6.695082 0,-6.697265 -4.610409,-0.0022 -4.610409,6.695082 0,6.697265 z M 11.07736,18.972461 h 1.382448 V 35.045899 H 11.07736 c -2.2896791,0 -4.1473441,-1.799893 -4.1473441,-4.01836 V 22.99082 c 0,-2.218469 1.857665,-4.018359 4.1473441,-4.018359 z m 47.003225,0 c 2.28968,0 4.147344,1.79989 4.147344,4.018359 v 8.036719 c 0,2.218467 -1.857664,4.01836 -4.147344,4.01836 H 56.698139 V 18.972461 Z"
       id="path1"
       style="stroke-width:0.264583" /><path
       style="fill:none;fill-rule:evenodd;stroke-width:0.0989999;stroke-linecap:square;stroke-linejoin:round;stroke-miterlimit:2.8"
       d="M 40.216666,-11.641667 H 55.033333"
       id="path2"
       transform="translate(-3.9183309,20.549075)" /><path
       style="fill:none;fill-rule:evenodd;stroke-width:0.0989999;stroke-linecap:square;stroke-linejoin:round;stroke-miterlimit:2.8"
       d="M 39.158333,-5.8208333 H 59.266666"
       id="path3"
       transform="translate(-3.9183309,20.549075)" /><path
       style="fill:none;fill-opacity:1;fill-rule:evenodd;stroke:#000000;stroke-width:3.69323;stroke-linecap:round;stroke-linejoin:round;stroke-miterlimit:2.8;stroke-dasharray:none"
       d="m 51.542928,37.137101 v 9.122177 a 3.5369826,3.5369826 135.07314 0 1 -3.546012,3.536971 l -17.539283,-0.04478"
       id="path9"
       transform="matrix(0.7448483,0.00150826,0,0.82775523,20.05024,6.9761293)" /><rect
       style="fill:none;fill-rule:evenodd;stroke:#000000;stroke-width:2.80001;stroke-linecap:square;stroke-linejoin:round;stroke-miterlimit:2.8;stroke-dasharray:none"
       id="rect10"
       width="7.7641792"
       height="3.9288619"
       x="31.216692"
       y="46.27879"
       ry="0.15543631"
       rx="0.15543631" /><path
       style="fill:none;fill-opacity:1;fill-rule:evenodd;stroke:#ffffff;stroke-width:2.9;stroke-linecap:round;stroke-linejoin:round;stroke-miterlimit:2.8;stroke-dasharray:none"
       d="m 26.801616,33.851592 c 3.286786,2.024509 7.818609,4.555424 16.304558,0"
       id="path11" /><path
       d="m 23.144854,48.670411 c -0.45428,0.552049 -0.541771,1.244257 -0.23317,1.848626 0.54827,1.067584 0.89324,2.276176 0.960403,3.575539 0.265041,5.127551 -3.683087,8.737858 -7.757019,8.920644 -4.073932,0.182786 -8.3761576,-3.057349 -8.641198,-8.184902 -0.2650413,-5.12755 3.683088,-8.737857 7.75702,-8.920642 1.639821,-0.07357 3.244505,0.365487 4.64688,1.262862 0.51535,0.331323 1.180206,0.474592 1.844257,0.403584 0.92455,-0.09919 1.766068,-0.31416 2.507458,-0.578225 -0.368699,0.717188 -0.789682,1.317199 -1.079507,1.672284 z m 1.86288,-4.303943 c -0.134534,0.08023 -0.269281,0.156332 -0.40424,0.228332 -0.829404,0.449357 -1.926341,0.89011 -3.177792,1.024568 -1.811196,-1.155171 -3.98571,-1.787104 -6.296833,-1.683409 -5.8879845,0.264177 -10.4152664,5.19048 -10.1147313,11.004719 0.3005361,5.814242 5.3149653,10.312435 11.2029503,10.048258 5.887986,-0.264178 10.415267,-5.190481 10.114732,-11.004721 -0.07886,-1.525518 -0.481633,-2.958197 -1.138533,-4.239342 0.420535,-0.509321 0.98911,-1.334392 1.452669,-2.303123 0.306119,-0.636073 0.577028,-1.357116 0.718552,-2.097084 0.0086,-0.03336 0.01198,-0.06647 0.02052,-0.09983 0.03165,-0.182764 0.05838,-0.361185 0.06931,-0.54714 -4.25e-4,-0.0082 0.0041,-0.02079 0.0036,-0.02901 0.01479,-0.210856 0.01932,-0.421254 0.0085,-0.630961 -0.01382,-0.267274 -0.225996,-0.496798 -0.538777,-0.585801 -0.31278,-0.089 -0.658266,-0.0158 -0.884425,0.179811 -0.206514,0.178246 -0.429249,0.340732 -0.667784,0.495686 -0.114248,0.07519 -0.22871,0.146269 -0.343385,0.213235 l -0.02498,0.01349 z"
       id="path1-3"
       style="stroke-width:0.264583" /><ellipse
       style="opacity:1;fill:#000000;fill-opacity:1;fill-rule:evenodd;stroke:#000000;stroke-width:2.89999;stroke-linecap:round;stroke-linejoin:round;stroke-miterlimit:2.8;stroke-dasharray:none"
       id="path12"
       cx="10.525002"
       cy="55"
       rx="0.52500266"
       ry="1.4114382e-06" /><ellipse
       style="fill:#000000;fill-opacity:1;fill-rule:evenodd;stroke:#000000;stroke-width:2.89999;stroke-linecap:round;stroke-linejoin:round;stroke-miterlimit:2.8;stroke-dasharray:none"
       id="path12-5"
       cx="15.525002"
       cy="55"
       rx="0.52500266"
       ry="1.4114382e-06" /><ellipse
       style="fill:#000000;fill-opacity:1;fill-rule:evenodd;stroke:#000000;stroke-width:2.89999;stroke-linecap:round;stroke-linejoin:round;stroke-miterlimit:2.8;stroke-dasharray:none"
       id="path12-5-0"
       cx="20.525003"
       cy="55"
       rx="0.52500266"
       ry="1.4114382e-06" /></g></svg>
